<?xml version="1.0" encoding="utf-8" ?><svg xmlns="http://www.w3.org/2000/svg" xmlns:xlink="http://www.w3.org/1999/xlink" width="1024" height="1024" viewBox="0 0 1024 1024"><defs><linearGradient id="gradient_0" gradientUnits="userSpaceOnUse" x1="650.93817" y1="469.86603" x2="332.99228" y2="295.80728"><stop offset="0" stop-color="#324907"/><stop offset="1" stop-color="#2F2C2E"/></linearGradient></defs><path fill="url(#gradient_0)" d="M506.485 646.993C504.256 645.16 498.906 639.704 497.038 637.597C476.029 613.899 457.697 588.161 439.682 562.211L399.54 504.469C378.926 474.457 353.331 442.798 339.279 408.983C330.659 388.241 327.419 359.798 328.617 337.321C331.548 288.949 354.017 246.295 388.874 213.653C462.196 144.992 578.85 148.123 646.429 223.103C678.846 259.07 698.626 309.123 695.534 358.212C694.322 379.052 689.128 399.467 680.234 418.353C673.43 432.791 663.292 447.713 654.384 460.947L627.454 500.873C611.081 525.402 594.364 549.7 577.307 573.758C563.802 593.115 551.191 611.669 535.319 629.259C529.702 635.484 525.368 641.209 518.99 646.837C513.887 648.484 511.787 648.805 506.485 646.993ZM474.514 600.596L477.955 598.203C499.362 583.052 519.186 565.779 537.124 546.645C570.962 510.67 599.298 467.648 623.602 424.801C636.443 402.944 646.345 380.918 650.188 355.544C657.083 310.02 650.962 263.3 624.521 224.756C596.02 183.21 557.529 168.51 508.042 170.215C385.86 176.291 295.649 303.787 349.86 419.764C354.819 430.373 362.033 440.422 368.541 450.204C378.1 464.79 387.92 479.204 397.994 493.44C423.494 529.839 447.574 564.976 474.514 600.596Z"/><defs><linearGradient id="gradient_1" gradientUnits="userSpaceOnUse" x1="623.14709" y1="430.71545" x2="335.40833" y2="313.44064"><stop offset="0" stop-color="#678C0C"/><stop offset="1" stop-color="#99B116"/></linearGradient></defs><path fill="url(#gradient_1)" d="M508.042 170.215C557.529 168.51 596.02 183.21 624.521 224.756C650.962 263.3 657.083 310.02 650.188 355.544C646.345 380.918 636.443 402.944 623.602 424.801C599.298 467.648 570.962 510.67 537.124 546.645C519.186 565.779 499.362 583.052 477.955 598.203L474.514 600.596C447.574 564.976 423.494 529.839 397.994 493.44C387.92 479.204 378.1 464.79 368.541 450.204C362.033 440.422 354.819 430.373 349.86 419.764C295.649 303.787 385.86 176.291 508.042 170.215ZM411.047 286.331C406.399 295.085 393.538 318.637 392.116 327.45C393.308 326.736 404.972 294.934 408.816 292.812C408.18 295.479 406.416 298.128 405.312 300.687C395.321 323.855 393.726 350.463 400.616 374.725C402.129 380.051 404.135 387.338 407.633 391.699C410.911 399.044 414.423 406.463 418.018 413.671C420.079 417.805 424.247 423.36 426.092 427.134C426.823 429.221 429.047 433.289 430.339 435.108C431.687 436.688 432.273 437.674 433.253 439.486C435.017 443.401 439.209 449.41 441.798 452.999C456.108 472.842 472.065 491.746 488.143 510.171C491.896 514.472 498.649 519.255 503.098 523.013C505.25 524.813 508.014 526.838 510.258 528.587L510.726 528.265C515.098 525.202 519.433 522.384 523.859 519.243L524.679 518.671C546.076 502.16 565.143 476.23 580.162 453.893C582.507 450.406 588.292 442.237 589.281 438.769C590.034 437.108 590.976 435.539 592.089 434.094C594.2 431.084 594.92 429.405 596.464 426.073C612.673 399.448 624.746 365.783 623.149 334.488C622.915 329.904 622.936 324.005 621.88 319.599C620.901 319.576 616.78 319.613 616.65 319.297C616.182 318.155 616.33 308.201 616.489 306.966C617.011 306.379 617.458 305.864 617.954 305.255C585.083 213.966 471.424 200.99 417.268 279.667C413.745 281.384 412.751 282.608 411.047 286.331ZM595.016 334.281C595.07 347.031 594.568 359.457 594.515 372.024L594.14 371.91C594.062 371.002 594.09 370.41 593.648 369.611C592.521 357.508 593.325 346.204 593.367 334.177C594.019 334.249 594.344 334.263 595.016 334.281ZM461.145 193.464C462.63 192.25 462.773 192.149 464.451 191.246C466.251 191.077 467.817 190.111 469.442 189.322C470.328 188.807 471.137 188.416 472.045 187.958C475.415 186.728 476.731 187.849 476.795 184.526C474.884 185.049 472.946 185.47 471.038 186.01C468.601 186.689 466.555 187.304 464.147 188.112C463.513 188.234 462.938 188.455 462.329 188.662C418.237 202.735 381.627 233.898 360.693 275.177C352.851 290.65 348.687 304.373 346.242 321.524C345.655 325.644 344.633 330.805 344.737 334.881L345.32 335.592C348.692 335.25 349.827 326.532 350.886 323.55C360.616 296.127 373.445 270.807 391.989 248.24C405.336 231.841 421.699 217.75 439.667 206.427C446.084 202.276 455.894 198.415 460.927 193.586C461 193.546 461.072 193.505 461.145 193.464Z"/><path fill="#222" d="M417.268 279.667C471.424 200.99 585.083 213.966 617.954 305.255C617.458 305.864 617.011 306.379 616.489 306.966L615.984 304.492C614.229 303.453 598.154 304.03 594.942 304.077L595.016 334.281C594.344 334.263 594.019 334.249 593.367 334.177C584.648 333.97 575.925 333.938 567.204 334.08C567.091 348.6 566.603 363.81 566.62 378.208C565.012 378.307 563.018 378.482 561.45 378.447C561.529 360.578 561.781 340.909 561.327 323.087C553.638 322.686 558.698 322.537 554.036 319.732C549.915 319.124 542.8 320.078 538.566 320.676L538.162 335.496C538.309 341.476 538.971 366.836 537.938 371.471C538.571 372.191 538.592 372.236 539.33 372.867L538.503 373.61L537.475 373.435C536.463 371.641 536.809 371.897 536.781 369.537C536.169 368.974 535.551 368.418 534.929 367.867L534.677 368.016L534.213 367.509C532.584 367.009 533.093 367.434 531.545 367.258C531.469 365.937 534.355 366.511 532.062 364.023C531.871 362.819 533.718 363.087 533.835 362.713C533.992 362.211 533.595 362.145 533.493 362.183C531.453 362.957 532.022 359.755 532.052 356.857C532.261 352.283 532.078 346.836 532.511 342.518C528.785 342.423 525.484 342.347 521.763 342.492C521.817 363.859 524.232 369.427 540.089 386.243C547.353 393.948 560.917 401.17 570.093 407.518C576.36 411.854 590.553 423.069 596.464 426.073C594.92 429.405 594.2 431.084 592.089 434.094C587.398 431.064 582.466 426.994 577.972 423.591C575.847 421.971 573.689 420.395 571.499 418.864C569.292 419.074 567.548 419.392 565.266 419.533C573.628 426.397 580.367 432.36 589.281 438.769C588.292 442.237 582.507 450.406 580.162 453.893C565.143 476.23 546.076 502.16 524.679 518.671C524.146 507.424 522.745 496.124 522.337 485.012C516.648 484.992 511.192 485.123 505.534 485.182C504.012 498.79 503.819 509.595 503.098 523.013C498.649 519.255 491.896 514.472 488.143 510.171C472.065 491.746 456.108 472.842 441.798 452.999C439.209 449.41 435.017 443.401 433.253 439.486C442.91 433.509 451.483 425.514 460.534 418.672C458.817 418.581 457.1 418.478 455.385 418.362C452.556 417.659 433.383 432.633 430.339 435.108C429.047 433.289 426.823 429.221 426.092 427.134C439.534 419.923 468.732 400.828 479.886 390.729C485.879 385.403 491.143 379.309 495.54 372.605C498.808 367.525 500.729 361.952 502.695 356.265L501.899 355.296C498.467 356.869 498.462 357.185 496.664 360.569C495.409 359.168 494.014 357.008 492.547 356.817L491.28 357.607C490.329 355.528 490.907 354.267 489.782 353.455C488.153 355.07 488.509 355.347 487.766 357.907C487.178 358.043 486.641 358.211 486.062 358.38C484.36 356.845 485.421 357.793 484.973 356.482C484.541 355.216 480.241 355.317 478.955 355.261L478.966 299.679C467.355 299.639 455.744 299.666 444.133 299.761C443.706 316.897 443.904 335.245 443.973 352.449L437.762 352.586C437.971 359.457 438.415 384.597 436.575 389.776L435.777 389.459C434.52 376.726 435.034 350.832 435.287 337.472C427.084 336.644 415.649 336.911 407.212 337.018C406.741 354.716 406.9 371.429 407.091 389.145L407.633 391.699C404.135 387.338 402.129 380.051 400.616 374.725C393.726 350.463 395.321 323.855 405.312 300.687C406.416 298.128 408.18 295.479 408.816 292.812C404.972 294.934 393.308 326.736 392.116 327.45C393.538 318.637 406.399 295.085 411.047 286.331C412.751 282.608 413.745 281.384 417.268 279.667ZM461.695 416.84C464.335 416.579 468.266 412.638 470.281 410.928C470.67 410.598 475.472 406.803 474.839 406.243C474.537 406.205 474.49 406.186 474.339 406.273C473.324 406.861 472.263 405.64 472.186 405.676C469.431 406.957 459.551 415.27 457.48 416.881C459 416.926 460.191 416.899 461.695 416.84ZM487.935 392.747C489.23 391.629 496.361 384.506 494.681 382.873C492.846 384.401 486.28 390.447 487.935 392.747ZM510.306 394.04C510.55 396.307 510.176 404.205 510.051 406.984L510.1 409.584C509.133 415.348 508.911 422.902 508.898 428.718L509.782 428.735C512.098 428.792 514.215 428.715 516.526 428.768C515.878 422.279 515.17 415.963 514.451 409.495C514.534 408.365 514.573 407.623 514.576 406.489C514.143 402.175 513.962 398.489 513.4 394.068L513.454 391.718C513.304 386.405 513.087 384.51 512.135 379.378C511.171 384.312 511.256 386.461 510.694 391.099C510.304 392.126 510.379 392.382 510.331 393.528L510.306 394.04ZM532.821 386.477C532.81 386.464 537.511 394.337 538.447 390.765C538.508 390.905 533.821 385.435 533.489 385.026C533.261 385.507 533.038 385.991 532.821 386.477ZM514.584 346.927C515.86 350.944 521.138 368.397 523.835 369.761C522.82 366.543 516.27 348.092 514.584 346.927ZM499.142 376.759L498.407 375.448L497.936 376.178C497.57 376.72 495.382 379.441 496.59 379.964C497.903 379.749 498.679 377.819 499.142 376.759ZM511.592 370.688L512.416 370.582L512.354 369.809C512.271 369.567 512.364 369.016 511.974 369.034C511.569 369.427 511.623 370.152 511.592 370.688ZM539.181 392.853C539.132 394.056 539.272 394.763 540.328 395.556C544.589 398.762 545.285 403.577 550.789 403.262C550.904 401.391 541.714 393.24 539.181 392.853ZM484.832 393.856C483.203 395.535 474.455 403.217 474.144 403.696C474.322 404.222 475.655 403.932 476.12 403.92C478.42 403.967 479.819 403.531 481.289 401.144C483.29 397.897 488.685 396.269 484.832 393.856ZM549.773 405.516C553.533 408.981 557.94 414.091 562.21 416.781C561.908 416.59 567.135 416.418 567.22 416.417C564.089 413.213 559.772 410.108 556.354 407.157C553.506 404.698 553.303 405.65 549.773 405.516ZM506.064 471.474L519.121 471.758L519.623 471.647C519.712 471.63 520.377 471.508 520.376 471.363C520.313 459.297 518.211 447.104 517.465 434.999C517.417 434.219 517.259 433.321 517.166 432.536L508.607 432.493L506.064 471.474Z"/><path fill="#5DBB3F" d="M411.047 286.331C412.751 282.608 413.745 281.384 417.268 279.667L413.206 286.474C396.602 319.236 392.276 343.902 403.37 380.513C404.021 382.662 405.824 387.398 407.091 389.145L407.633 391.699C404.135 387.338 402.129 380.051 400.616 374.725C393.726 350.463 395.321 323.855 405.312 300.687C406.416 298.128 408.18 295.479 408.816 292.812C404.972 294.934 393.308 326.736 392.116 327.45C393.538 318.637 406.399 295.085 411.047 286.331Z"/><path fill="white" d="M532.052 356.857L533.37 357.548L535.615 357.185C538.111 358.288 537.008 367.018 536.781 369.537C536.169 368.974 535.551 368.418 534.929 367.867L534.677 368.016L534.213 367.509C532.584 367.009 533.093 367.434 531.545 367.258C531.469 365.937 534.355 366.511 532.062 364.023C531.871 362.819 533.718 363.087 533.835 362.713C533.992 362.211 533.595 362.145 533.493 362.183C531.453 362.957 532.022 359.755 532.052 356.857Z"/><path fill="#A4A2A5" d="M532.052 356.857L533.37 357.548C535.731 360.137 533.886 364.134 534.929 367.867L534.677 368.016L534.213 367.509C532.584 367.009 533.093 367.434 531.545 367.258C531.469 365.937 534.355 366.511 532.062 364.023C531.871 362.819 533.718 363.087 533.835 362.713C533.992 362.211 533.595 362.145 533.493 362.183C531.453 362.957 532.022 359.755 532.052 356.857Z"/><path fill="white" d="M506.239 345.579C505.551 348.799 504.188 353.351 502.695 356.265L501.899 355.296C501.945 352.779 504.911 347.915 506.239 345.579Z"/><path fill="#3C3A3C" d="M455.385 418.362C456.166 417.647 456.484 417.239 457.48 416.881C459 416.926 460.191 416.899 461.695 416.84C461.28 417.464 460.925 418.036 460.534 418.672C458.817 418.581 457.1 418.478 455.385 418.362Z"/><path fill="#A4A2A5" fill-opacity="0.98823529" d="M514.584 346.927C516.27 348.092 522.82 366.543 523.835 369.761C521.138 368.397 515.86 350.944 514.584 346.927Z"/><path fill="#A4A2A5" d="M511.105 347.302C512.619 348.513 512.61 364.704 512.688 367.846C512.584 367.773 511.67 367.182 511.654 367.099C510.97 363.487 511.013 349.967 511.105 347.302Z"/><path fill="white" fill-opacity="0.011764706" d="M512.135 379.378C513.087 384.51 513.304 386.405 513.454 391.718C512.067 391.563 511.966 391.615 510.694 391.099C511.256 386.461 511.171 384.312 512.135 379.378Z"/><path fill="white" fill-opacity="0.0078431377" d="M494.681 382.873C496.361 384.506 489.23 391.629 487.935 392.747C486.28 390.447 492.846 384.401 494.681 382.873Z"/><path fill="white" d="M523.408 371.809C525.77 372.684 528.781 378.135 529.556 380.407C526.687 380.095 524.305 374.289 523.408 371.809Z"/><path fill="#3C3A3C" fill-opacity="0.78823531" d="M510.051 406.984C510.657 407.24 513.408 406.561 514.576 406.489C514.573 407.623 514.534 408.365 514.451 409.495L510.1 409.584L510.051 406.984Z"/><path fill="white" fill-opacity="0.078431375" d="M533.489 385.026C533.821 385.435 538.508 390.905 538.447 390.765C537.511 394.337 532.81 386.464 532.821 386.477C533.038 385.991 533.261 385.507 533.489 385.026Z"/><path fill="white" d="M512.416 370.582C514.075 376.251 510.985 386.338 511.592 370.688L512.416 370.582Z"/><path fill="white" d="M498.407 375.448C498.538 374.673 501.83 367.959 501.532 371.946C501.467 372.82 499.88 375.877 499.142 376.759L498.407 375.448Z"/><path fill="#3C3A3C" fill-opacity="0.97647059" d="M510.306 394.04L510.331 393.528C510.379 392.382 510.304 392.126 510.694 391.099C511.966 391.615 512.067 391.563 513.454 391.718L513.4 394.068L510.306 394.04Z"/><path fill="white" d="M504.322 361.38C505.762 362.821 503.599 367.051 502.823 368.65C501.267 367.072 503.52 363.464 504.322 361.38Z"/><path fill="white" d="M532.821 386.477C528.645 384.357 531.292 379.699 533.489 385.026C533.261 385.507 533.038 385.991 532.821 386.477Z"/><path fill="white" fill-opacity="0.05882353" d="M498.407 375.448L499.142 376.759C498.679 377.819 497.903 379.749 496.59 379.964C495.382 379.441 497.57 376.72 497.936 376.178L498.407 375.448Z"/><path fill="#A4A2A5" d="M508.482 346.267C509.456 348.458 508.2 349.909 507.328 352.16C506.756 350.044 507.601 348.291 508.482 346.267Z"/><path fill="#BDBEBE" d="M506.711 353.866C507.015 355.965 506.213 357.53 505.586 359.518C504.565 357.101 505.333 356.158 506.711 353.866Z"/><path fill="#7F7E80" fill-opacity="0.97254902" d="M511.592 370.688C511.623 370.152 511.569 369.427 511.974 369.034C512.364 369.016 512.271 369.567 512.354 369.809L512.416 370.582L511.592 370.688Z"/><path fill="#3C3A3C" d="M600.371 330.07C603.852 331.066 603.005 331.231 602.986 335.187C599.275 333.987 600.161 334.151 600.371 330.07Z"/><path fill="#3C3A3C" d="M600.86 339.675C603.927 340.736 603.169 341.407 602.996 344.804C599.677 343.643 599.736 343.225 600.86 339.675Z"/><path fill="#3C3A3C" fill-opacity="0.98823529" d="M600.504 349.491C603.789 350.426 602.987 350.407 603.021 354.029C599.374 353.163 600.16 353.295 600.504 349.491Z"/><path fill="#3C3A3C" fill-opacity="0.98823529" d="M600.964 362.972C603.717 363.913 603.113 364.522 602.662 367.386C599.811 366.462 599.829 365.84 600.964 362.972Z"/><path fill="#222" d="M600.488 321.113C602.324 321.499 602.724 321.513 602.685 323.512L602.638 325.904C599.649 324.782 600.486 324.569 600.488 321.113Z"/><path fill="#3C3A3C" fill-opacity="0.97254902" d="M600.998 371.806C603.295 372.895 602.949 373.916 602.522 376.299C599.6 375.594 600.117 374.565 600.998 371.806Z"/><path fill="#100E10" fill-opacity="0.96078432" d="M618.79 344.707C621.872 345.258 621.39 345.218 621.54 348.339C618.463 348.568 619.097 347.761 618.79 344.707Z"/><path fill="#100E10" fill-opacity="0.97254902" d="M600.434 313.387C600.922 313.064 601.551 313.044 602.059 313.335C602.567 313.625 602.867 314.178 602.836 314.762C602.805 315.346 602.447 315.863 601.911 316.098C601.175 316.421 600.313 316.127 599.929 315.421C599.544 314.714 599.764 313.831 600.434 313.387Z"/><path fill="#100E10" fill-opacity="0.92156863" d="M600.981 381.164C603.071 382.23 602.764 383.434 601.89 385.568C599.682 384.716 600.49 383.302 600.981 381.164Z"/><path fill="#222" d="M618.715 353.064C621.787 353.987 620.936 354.08 620.666 357.336C618.691 357.409 618.977 354.831 618.715 353.064Z"/><path fill="#100E10" fill-opacity="0.96078432" d="M619.17 336.299C621.549 337.42 621.345 338.272 620.342 340.456C618.552 339.643 619.281 338.4 619.17 336.299Z"/><path fill="#5B5A5A" fill-opacity="0.10196079" d="M574.254 382.248C574.588 382.225 574.923 382.202 575.258 382.179C575.237 383.081 575.059 382.882 575.167 383.981C575.099 383.982 575.032 383.982 574.965 383.984C574.663 383.993 574.283 384.085 574.003 383.912C573.975 383.832 574.314 382.96 574.254 382.248Z"/><path fill="#100E10" fill-opacity="0.39215687" d="M574.158 389.867C575.823 389.284 574.705 390.096 575.349 391.913L575.545 392.456C573.608 391.842 573.876 391.919 574.158 389.867Z"/><path fill="#3C3A3C" fill-opacity="0.91764706" d="M466.801 322.614C469.761 323.607 469.07 324.252 468.87 327.556C465.669 326.485 466.396 326.129 466.801 322.614Z"/><path fill="#3C3A3C" fill-opacity="0.95686275" d="M453.693 346.619C456.957 347.307 456.015 347.759 455.913 351.359C452.684 350.194 453.389 350.21 453.693 346.619Z"/><path fill="#100E10" fill-opacity="0.94117647" d="M466.464 346.623C470.023 347.212 468.846 347.177 469.403 350.98C465.716 350.113 466.615 350.589 466.464 346.623Z"/><path fill="#2E2430" fill-opacity="0.90196079" d="M467.008 359.821C467.841 359.516 468.766 359.93 469.093 360.754C469.42 361.579 469.03 362.514 468.214 362.863C467.667 363.096 467.037 363.014 466.567 362.649C466.098 362.284 465.863 361.693 465.955 361.105C466.047 360.518 466.45 360.026 467.008 359.821Z"/><path fill="#3C3A3C" fill-opacity="0.97254902" d="M453.787 334.607C455.373 335.091 456.06 335.167 456.037 336.996L456.02 339.185C452.815 338.026 453.248 338.334 453.787 334.607Z"/><path fill="#3C3A3C" d="M424.877 356.422C425.49 356.252 426.146 356.457 426.554 356.945C426.963 357.432 427.049 358.114 426.774 358.688C426.5 359.261 425.916 359.622 425.28 359.611C424.473 359.596 423.799 358.991 423.698 358.19C423.597 357.39 424.099 356.636 424.877 356.422Z"/><path fill="#3C3A3C" fill-opacity="0.89803922" d="M453.872 322.606C456.771 323.631 455.838 324.155 455.971 327.446C452.834 326.018 453.161 326.333 453.872 322.606Z"/><path fill="#3C3A3C" fill-opacity="0.97647059" d="M424.315 385.614C426.943 386.755 426.259 387.21 426.13 389.942C423.004 389.107 423.671 388.89 424.315 385.614Z"/><path fill="#100E10" fill-opacity="0.94117647" d="M466.771 334.472C469.802 335.428 469 335.304 469.027 338.696C468.732 338.63 468.436 338.569 468.139 338.515C466.294 338.182 466.924 336.266 466.771 334.472Z"/><path fill="#3C3A3C" d="M424.575 376.88C425.197 376.636 425.904 376.852 426.284 377.401C426.664 377.949 426.617 378.687 426.17 379.183C425.772 379.625 425.144 379.777 424.588 379.565C424.033 379.353 423.664 378.821 423.662 378.227C423.659 377.632 424.022 377.097 424.575 376.88Z"/><path fill="#222" d="M424.461 366.754C424.91 366.45 425.494 366.431 425.963 366.704C426.432 366.977 426.702 367.495 426.659 368.036C426.616 368.577 426.266 369.045 425.76 369.24C425.09 369.499 424.333 369.213 424.001 368.577C423.668 367.941 423.866 367.156 424.461 366.754Z"/><path fill="#222" d="M414.041 356.836C414.679 356.386 415.561 356.543 416.006 357.185C416.451 357.826 416.288 358.708 415.643 359.148C415.005 359.583 414.135 359.422 413.695 358.787C413.255 358.152 413.409 357.281 414.041 356.836Z"/><path fill="#3C3A3C" fill-opacity="0.98039216" d="M414.241 376.213C415.524 376.976 416.711 378.084 414.683 378.89C412.486 379.03 413.428 377.583 414.241 376.213Z"/><path fill="#3C3A3C" d="M442.312 380.214C444.871 380.886 444.476 380.98 444.768 383.796C442.394 383.482 442.309 383.649 442.34 381.198L442.312 380.214Z"/><path fill="#100E10" fill-opacity="0.97254902" d="M424.277 347.369C424.821 346.879 425.656 346.912 426.16 347.444C426.663 347.975 426.65 348.812 426.131 349.328C425.784 349.673 425.276 349.802 424.806 349.667C424.336 349.531 423.976 349.151 423.866 348.673C423.756 348.196 423.913 347.697 424.277 347.369Z"/><path fill="#100E10" fill-opacity="0.96470588" d="M485.373 372.295C485.743 371.86 486.348 371.706 486.881 371.911C487.414 372.117 487.759 372.637 487.741 373.208C487.723 373.78 487.346 374.277 486.801 374.449C486.23 374.629 485.608 374.409 485.277 373.91C484.946 373.41 484.985 372.752 485.373 372.295Z"/><path fill="#100E10" fill-opacity="0.83137256" d="M466.84 311.746C467.382 311.34 468.147 311.432 468.577 311.955C469.008 312.478 468.951 313.247 468.448 313.701C468.102 314.014 467.612 314.111 467.172 313.954C466.733 313.797 466.415 313.411 466.345 312.949C466.276 312.488 466.466 312.025 466.84 311.746Z"/><path fill="#100E10" d="M449.491 380.15C451.762 380.903 450.994 381.625 450.877 384.148C449.403 382.991 448.978 382.859 449.352 380.947L449.491 380.15Z"/><path fill="#100E10" fill-opacity="0.84313726" d="M453.786 311.91C454.276 311.553 454.952 311.604 455.383 312.03C455.813 312.457 455.871 313.133 455.519 313.626C455.235 314.024 454.743 314.217 454.264 314.118C453.785 314.019 453.41 313.647 453.306 313.169C453.203 312.692 453.391 312.198 453.786 311.91Z"/><path fill="#100E10" fill-opacity="0.81568629" d="M449.894 367.216C450.407 366.987 450.398 366.774 450.84 367.014C450.999 367.535 450.783 367.817 450.546 368.32C450.139 368.79 450.031 368.843 449.713 369.151C449.574 369.123 449.63 369.157 449.544 369.054C449.453 368.387 449.693 367.875 449.894 367.216Z"/><path fill="#100E10" fill-opacity="0.94509804" d="M449.666 374.826C451.192 374.299 450.651 375.238 450.914 376.819C449.393 376.556 449.466 376.351 449.666 374.826Z"/><path fill="#100E10" fill-opacity="0.92941177" d="M449.697 359.295C451.036 360.125 451.865 360.178 450.518 361.214C450.03 361.515 450.06 361.752 449.593 361.544C449.313 360.936 449.592 359.958 449.697 359.295Z"/><path fill="#222" fill-opacity="0.67058825" d="M442.863 367.17C443.865 366.951 443.749 367.173 443.523 368.2C443.397 368.302 442.833 368.952 442.524 368.703C442.382 368.259 442.722 367.572 442.863 367.17Z"/><path fill="#100E10" fill-opacity="0.97254902" d="M450.079 388.234C450.399 388.153 450.728 387.93 450.957 388.241C450.985 388.677 450.82 388.779 450.528 389.178C450.141 389.304 449.893 389.473 449.547 389.333C449.241 388.947 449.866 388.463 450.079 388.234Z"/><path fill="#2E2430" fill-opacity="0.90196079" d="M443.015 375.239C443.195 375.1 443.503 374.761 443.779 374.761C443.76 375.272 443.708 375.329 443.554 375.9C443.365 375.921 443.177 375.941 442.989 375.962C442.998 375.721 443.006 375.48 443.015 375.239Z"/><path fill="#100E10" fill-opacity="0.75294119" d="M442.896 360.565C442.985 360.569 443.074 360.573 443.163 360.577C443.312 360.837 443.295 361.081 443.313 361.393C443.083 361.42 442.985 361.468 442.817 361.378C442.787 361.099 442.84 360.855 442.896 360.565Z"/><path fill="#BDBEBE" fill-opacity="0.11764706" d="M495.428 363.143C495.507 363.137 495.587 363.131 495.667 363.125C495.726 363.275 495.704 363.161 495.65 363.555C495.576 363.417 495.502 363.28 495.428 363.143Z"/><path fill="#FBFEE7" d="M503.108 179.733L503.579 180.848C491.161 183.544 479.575 186.739 467.888 191.929C465.78 192.865 462.479 195.254 461.145 193.464C462.63 192.25 462.773 192.149 464.451 191.246C466.251 191.077 467.817 190.111 469.442 189.322C470.328 188.807 471.137 188.416 472.045 187.958C475.415 186.728 476.731 187.849 476.795 184.526L477.117 184.447C478.244 184.157 479.374 183.879 480.507 183.613L482.756 183.11C486.163 182.4 489.58 181.738 493.005 181.124C493.915 180.957 495.379 180.661 496.252 180.559L503.108 179.733Z"/><path fill="#3C3A3C" d="M595.016 334.281C595.07 347.031 594.568 359.457 594.515 372.024L594.14 371.91C594.062 371.002 594.09 370.41 593.648 369.611C592.521 357.508 593.325 346.204 593.367 334.177C594.019 334.249 594.344 334.263 595.016 334.281Z"/><path fill="#100E10" d="M617.954 305.255C618.381 306.318 618.27 306.052 618.602 307.234C619.516 310.467 620.354 313.721 621.116 316.993C621.323 317.848 621.629 318.746 621.88 319.599C620.901 319.576 616.78 319.613 616.65 319.297C616.182 318.155 616.33 308.201 616.489 306.966C617.011 306.379 617.458 305.864 617.954 305.255Z"/><path fill="#FBFEE7" d="M342.757 352.661C343.226 347.9 343.356 341.173 344.196 336.701L344.184 336.712C345.602 336.837 345.394 337.858 346.711 336.933C346.893 337.105 344.024 352.74 343.871 354.455C343.244 353.572 343.205 353.572 342.757 352.661Z"/><path fill="#100E10" fill-opacity="0.98431373" d="M486.062 358.38C486.641 358.211 487.178 358.043 487.766 357.907C488.059 360.558 488.013 363.333 487.844 366C487.8 366.699 488.037 370.67 487.496 370.949C486.275 371.576 484.453 369.989 485.269 368.524C485.808 368.405 486.169 368.822 486.721 369.045L486.883 368.985C487.493 367.472 484.178 367.4 485.222 365.702C485.419 365.382 487.337 365.615 486.79 364.15C485.873 363.82 484.861 365.147 485.028 362.976C485.115 361.848 486.239 362.561 486.818 362.301C488.007 360.615 484.998 361.268 485.107 360.51C485.307 359.129 485.849 359.765 486.062 358.38Z"/><path fill="#B2C471" d="M503.108 179.733C504.514 179.045 518.027 177.779 518.763 178.41L518.791 178.621C518.811 178.597 504.706 180.746 503.579 180.848L503.108 179.733Z"/><path fill="#100E10" fill-opacity="0.85490197" d="M594.14 371.91L594.515 372.024C594.535 373.738 595.043 386.429 593.731 386.462C593.434 386.082 593.441 373.402 593.462 372.019L594.14 371.91Z"/><path fill="white" fill-opacity="0.76862746" d="M464.147 188.112C466.555 187.304 468.601 186.689 471.038 186.01C471.414 187.059 471.431 187.036 472.045 187.958C471.137 188.416 470.328 188.807 469.442 189.322C467.007 187.97 467.196 189.9 464.147 188.112Z"/><path fill="white" fill-opacity="0.60784316" d="M462.329 188.662C462.938 188.455 463.513 188.234 464.147 188.112C467.196 189.9 467.007 187.97 469.442 189.322C467.817 190.111 466.251 191.077 464.451 191.246C465.334 189.56 464.032 190.221 462.329 188.662Z"/><path fill="white" fill-opacity="0.59607846" d="M471.038 186.01C472.946 185.47 474.884 185.049 476.795 184.526C476.731 187.849 475.415 186.728 472.045 187.958C471.431 187.036 471.414 187.059 471.038 186.01Z"/><path fill="#B2C471" d="M342.757 352.661C343.205 353.572 343.244 353.572 343.871 354.455C343.334 361.225 341.621 355.925 342.757 352.661Z"/><path fill="#3C3A3C" fill-opacity="0.98039216" d="M534.213 367.509L534.677 368.016C533.346 370.76 529.88 371.259 534.213 367.509Z"/><path fill="#5B5A5A" fill-opacity="0.52549022" d="M593.648 369.611C594.09 370.41 594.062 371.002 594.14 371.91L593.462 372.019C593.512 371.177 593.561 370.458 593.648 369.611Z"/><path fill="#5DBB3F" d="M775.999 709.152C780.861 708.847 787.007 709 791.965 708.994C791.961 719.558 792.04 730.122 792.201 740.685C797.231 736.033 801.033 733.014 808.288 732.358C814.741 731.752 821.165 733.781 826.1 737.983C840.108 749.699 840.748 772.228 829.091 785.936C816.33 797.696 804.946 796.573 792.133 786.084L791.425 792.649C786.221 792.706 781.016 792.632 775.815 792.428C775.21 771.695 776.1 750.603 775.772 729.834C775.665 723.074 775.642 715.878 775.999 709.152ZM809.898 778.663C814.282 776.857 817.391 775.134 819.168 770.585C824.532 756.853 816.662 746.354 802.499 747.655C785.502 753.715 787.79 780.47 809.898 778.663Z"/><path fill="#222" d="M309.164 733.183C318.623 732.41 324.33 735.061 330.615 741.973L331.049 734.257C334.813 734.11 336.236 734.118 339.958 734.575C339.982 747.703 341.365 794.113 337.623 803.652C335.412 809.285 331.215 813.844 325.639 816.256C318.792 819.218 308.416 819.44 301.527 816.648C294.299 813.718 289.38 807.645 286.364 800.68L294.503 795.765C294.458 795.736 298.165 803.414 299.582 804.647C308.615 812.507 324.855 811.709 329.236 799.094C330.887 794.339 330.526 787.901 330.446 782.369C327.079 787.191 322.426 791.333 316.482 792.262C279.877 797.983 271.887 739.416 309.164 733.183ZM316.223 784.074C339.891 776.887 335.361 739.592 309.894 741.616C293.424 745.641 289.443 762.648 297.647 775.994C302.203 783.405 308.231 784.492 316.223 784.074Z"/><path fill="#5DBB3F" d="M629.109 712.27C634.368 712.027 638.25 712.104 643.459 712.297C643.84 722.08 643.612 733.967 643.562 743.769C652.214 744.023 668.49 744.123 676.872 743.513C677.15 733.682 676.905 722.431 676.951 712.51C682.36 712.124 688.421 712.246 693.856 712.361C693.483 735.566 694.184 758.915 693.858 782.14C693.814 785.287 694.399 789.325 693.721 792.274L692.625 792.575L676.935 792.376C676.817 782.004 676.809 771.631 676.911 761.259C669.076 761.071 650.621 760.923 643.528 761.534C643.466 771.869 643.646 782.016 643.449 792.397C638.216 792.556 631.937 792.366 626.634 792.32C625.943 774.937 626.796 732.403 627.025 713.125C627.032 712.521 628.243 712.469 629.109 712.27Z"/><path fill="#222" d="M532.428 709.051C535.033 708.873 538.337 708.992 541.001 709.013C541.281 736.656 540.72 764.694 540.881 792.36L532.54 792.469L532.495 782.512C522.266 794.405 510.593 797.435 496.83 789.105C480.309 777.518 480.03 750.47 495.924 738.043C501.282 733.821 508.156 732.017 514.897 733.065C522.079 734.125 527.803 738.428 531.976 744.176C532.869 734.623 532.353 719.118 532.428 709.051ZM514.212 785.022C520.187 784.091 524.971 782.221 528.291 776.806C537.618 761.591 530.287 741.788 511.089 741.666C485.177 745.985 488.07 785.032 514.212 785.022Z"/><path fill="#222" d="M579.579 733.142C618.248 729.858 624.616 784.966 589.174 793.457C582.317 793.885 575.542 793.833 569.675 789.807C547.364 774.497 552.452 739.353 579.579 733.142ZM588.301 784.969C606.341 780.569 609.35 754.128 594.497 744.252C589.892 741.189 585.652 741.264 580.332 741.56C574.015 743.404 570.593 745.736 567.216 751.814C561.455 762.18 565.244 778.199 576.269 783.448C580.248 785.343 583.964 785.209 588.301 784.969Z"/><path fill="#B2C471" d="M506.485 646.993C511.787 648.805 513.887 648.484 518.99 646.837C521.973 648.482 533.593 647.793 537.431 648.104C547.392 648.909 578.586 649.686 584.961 656.563L585.014 657.512C571.874 670.314 457.016 668.085 438.229 659.1C437.101 657.585 437.305 658.401 437.512 656.593C442.049 650.809 477.48 648.992 486.234 647.992C491.97 647.338 500.43 648.246 506.485 646.993Z"/><path fill="#5DBB3F" d="M707.892 734.024C712.837 733.779 718.837 733.928 723.86 733.92C724.232 742.914 722.196 767.074 725.819 773.654C727.887 777.408 730.499 778.44 734.375 779.628C749.732 776.95 745.524 762.877 746.058 751.111C746.309 745.586 746.008 739.576 745.983 734.003L762.502 733.993C762.549 741.39 762.459 748.848 762.417 756.25L762.458 792.454C757.593 792.44 752.728 792.401 747.863 792.338C747.665 790.027 747.557 787.642 747.419 785.321C734.286 797.641 713.073 797.289 708.76 777.301C706.309 765.937 707.746 746.394 707.892 734.024Z"/><path fill="#222" d="M376.759 733.112C379.065 732.841 381.392 732.798 383.706 732.983C390.338 733.484 396.469 736.698 400.653 741.867C406.85 749.421 407.758 757.241 406.984 766.5C392.042 766.364 377.099 766.38 362.158 766.547C365.804 783.809 383.041 793.01 395.603 778.686L398.09 774.226C400.204 775.761 403.191 777.547 405.459 778.983C402.046 785.185 396.076 791.165 389.013 792.828C350.023 802.008 338.453 740.737 376.759 733.112ZM361.907 759.426C368.86 759.702 375.906 759.131 382.375 759.37C387.388 759.482 392.79 759.55 397.773 759.091C396.063 746.295 391.715 740.465 377.991 741.109C367.381 743.08 364.681 749.784 361.907 759.426Z"/><path fill="#222" d="M447.911 732.697C464.46 732.93 470.945 743.495 471.028 758.977C471.088 770.078 471.02 781.229 470.982 792.333C468.201 792.436 465.301 792.341 462.509 792.3C462.541 782.432 464.198 755.869 460.111 748.36C458.23 744.905 455.163 742.609 451.359 741.664C446.215 740.387 442.186 741.544 437.753 744.159C437.156 744.658 436.572 745.171 436.001 745.699C428.885 752.363 429.798 762.981 429.809 771.868C429.817 778.709 429.964 785.552 429.801 792.392C427.059 792.445 424.228 792.421 421.478 792.433C420.769 787.051 421.14 776.53 421.176 770.75C421.331 758.593 421.272 746.434 420.997 734.278C423.678 734.126 426.784 734.15 429.507 734.113L429.413 743.761C434.308 736.064 439.184 733.751 447.911 732.697Z"/><path fill="#222" d="M231.378 740.62C239.838 731.466 254.288 729.685 263.496 738.562C266.349 741.358 268.363 744.895 269.313 748.775C270.646 754.027 270.207 763.17 270.18 768.797L270.192 792.443L261.63 792.384C261.702 782.92 261.699 773.637 261.793 763.943C262.047 754.269 260.786 742.472 248.787 741.337C239.822 740.488 231.769 746.306 230.017 755.141C228.859 760.977 229.458 768.317 229.409 774.332C229.359 780.372 229.442 786.322 229.301 792.366L220.714 792.486C220.315 773.991 220.938 752.803 220.943 734.075L229.357 734.042L229.338 741.127C229.219 741.736 228.972 742.529 229.2 743.108L229.297 743.164C229.791 742.998 230.986 741.132 231.378 740.62Z"/><path fill="#222" d="M190.433 713.55L199.77 713.508C199.528 739.647 199.43 765.787 199.474 791.927C197.919 792.365 192.485 792.233 190.534 792.234L190.433 713.55Z"/><path fill="#5B5A5A" d="M195.359 838.837C199.405 837.317 203.915 839.38 205.412 843.434C206.91 847.488 204.823 851.987 200.761 853.463C196.73 854.927 192.272 852.86 190.786 848.836C189.3 844.813 191.343 840.344 195.359 838.837ZM198.89 851.96C204.488 848.427 204.757 841.895 197.683 840.407L196.958 840.703C192.3 842.392 191.221 850.78 198.89 851.96Z"/><path fill="#5B5A5A" d="M782.206 838.814C786.283 837.518 790.634 839.794 791.897 843.881C793.159 847.968 790.848 852.301 786.751 853.53C782.7 854.745 778.428 852.467 777.18 848.426C775.932 844.386 778.176 840.095 782.206 838.814ZM785.222 851.345C788.137 851.006 790.219 848.36 789.863 845.448C789.506 842.536 786.848 840.47 783.938 840.844C781.052 841.214 779.008 843.845 779.361 846.733C779.715 849.62 782.333 851.68 785.222 851.345Z"/><path fill="#5B5A5A" d="M561.056 838.695C567.252 838.777 572.862 840.465 570.939 848.249C570.513 850.035 569.381 851.572 567.802 852.509C567.67 852.583 567.539 852.657 567.407 852.73L566.639 853.188C563.673 853.714 561.146 853.659 558.151 853.675C558.315 849.301 558.005 843.408 558.549 839.122C558.585 838.842 560.863 838.712 561.056 838.695ZM560.573 851.583C563.978 851.371 564.229 851.718 567.492 850.318C571.071 842.818 567.399 840.762 560.551 840.395C560.438 844.738 560.417 847.272 560.573 851.583Z"/><path fill="#5B5A5A" d="M349.208 838.512C354.758 838.613 361.168 837.121 360.114 844.047C359.806 846.067 358.903 845.342 358.664 846.39C359.362 848.206 361.233 846.557 360.695 851.749C356.427 854.199 354.198 853.616 349.231 853.842C349.082 848.763 349.189 843.606 349.208 838.512ZM351.53 846.873C351.576 852.372 350.382 851.891 355.998 851.697C356.745 851.672 357.789 851.345 358.489 851.157C359.514 845.509 356.43 847.157 351.53 846.873ZM358.184 844.894C357.659 840.166 357.831 840.073 353.257 840.175C352.664 840.184 352.071 840.18 351.479 840.165C351.663 846.464 350.742 845.49 358.184 844.894Z"/><path fill="#5B5A5A" d="M488.306 838.555C492.044 838.425 497.474 837.13 499.472 841.257C501.537 845.524 496.155 847.296 496.022 847.692C496.513 849.658 500.958 852.807 498.633 853.752L498.032 854.012C496.038 851.742 494.683 848.425 491.69 847.612C488.76 846.778 492.64 854.856 488.669 853.171C488.155 852.953 488.297 839.932 488.306 838.555ZM496.236 845.283C498.571 840.172 494.239 840.517 490.852 840.555C491.027 846.145 489.227 847.049 496.236 845.283Z"/><path fill="#5B5A5A" d="M713.934 838.271C716.731 839.099 717.45 839.873 718.239 842.952C718.627 844.469 722.451 852.957 722.438 853.513C720.22 856.515 719.429 850.393 717.507 850.122C716.068 850.065 713.894 849.908 712.496 850.014C711.457 850.183 710.905 852.883 710.4 853.209C706.575 855.678 709.154 850.534 709.355 849.97C710.79 846.036 712.317 842.135 713.934 838.271ZM716.318 848.684C718.563 847.252 716.396 843.837 715.109 842.303C713.043 847.895 711.096 847.311 716.318 848.684Z"/><path fill="#5B5A5A" d="M613.892 838.572C615.932 838.469 618.674 838.023 620.077 839.983C620.439 840.541 621.161 841.527 620.987 842.244C621 842.19 619.526 843.405 619.527 843.404C617.573 843.464 619.378 839.593 616.488 840.785C615.796 841.07 613.966 842.284 614.299 843.372C616.1 845.018 620.787 845.334 621.411 847.482C622.661 851.784 620.671 853.023 616.998 854.29C614.183 853.789 611.287 853.471 610.504 849.98C610.312 849.127 611.544 848.545 612.237 848.705C613.349 848.962 613.455 850.678 614.459 851.237C615.305 851.706 616.283 852.037 617.26 851.91C617.867 851.831 618.531 851.494 618.883 850.992C619.128 850.301 619.269 848.93 618.914 848.265C618.608 847.693 616.793 847.458 616.288 847.324C614.479 846.847 611.935 846.088 610.937 844.317C609.32 841.444 611.755 839.793 613.892 838.572Z"/><path fill="#5B5A5A" d="M220.623 838.165C224.88 839.814 228.434 845.88 231.173 849.809C231.17 847.3 230.991 841.806 231.396 839.141C231.484 838.96 231.721 838.767 231.921 838.781C232.021 838.794 233.287 838.622 233.3 838.857C233.458 841.721 233.677 851.832 232.999 854.059C228.832 851.891 226.383 845.577 222.746 842.693L222.718 842.709C222.559 843.563 223.316 843.672 222.949 844.735C222.094 847.209 222.754 850.331 222.214 852.875C222.132 853.261 221.745 853.51 221.41 853.643C221.144 853.589 220.632 853.449 220.623 853.23C220.482 849.817 220.449 840.949 220.623 838.165Z"/><path fill="#5B5A5A" d="M680.673 838.137C684.812 839.186 689.113 846.56 691.169 850.282C691.182 849.268 690.706 837.406 692.745 838.878C693.453 840.571 694.055 852.37 692.579 854.093C690.196 852.298 684.975 845.618 683.486 842.832L683.541 842.991C683.508 843.636 682.734 851.812 682.77 851.707C679.994 860.004 680.646 838.823 680.673 838.137Z"/><path fill="#3C3A3C" d="M586.428 838.746C587.866 838.819 598.012 837.85 595.807 840.433C595.707 840.435 595.607 840.437 595.508 840.438C593.422 840.221 590.569 840.199 588.553 840.495C588.428 840.514 588.421 841.038 588.461 841.181C588.73 842.15 588.269 844.466 588.648 845.274C597.211 844.497 599.94 846.763 589.405 846.686C587.417 846.422 588.675 851.668 588.547 851.445C590.343 852.289 596.075 850.276 596.692 852.627C595.761 854.194 588.274 853.509 586.36 853.482C586.462 848.594 586.234 843.51 586.428 838.746Z"/><path fill="#5B5A5A" d="M435.229 838.336C435.36 838.386 437.031 839.016 437.04 839.026C438.87 840.939 441.111 848.736 441.807 850.811C442.606 848.618 445.294 841.094 446.776 839.099C446.91 838.919 449.317 837.778 448.192 840.123C441.568 858.724 441.458 858.662 435.229 838.336Z"/><path fill="#3C3A3C" d="M249.941 838.893C251.219 838.918 258.846 838.654 259.171 839.555C259.145 839.705 259.129 839.987 258.981 840.01C256.789 840.356 253.933 839.773 251.713 840.209C251.589 840.234 251.639 840.673 251.662 840.735C252.216 842.218 251.705 843.768 251.66 845.248C261.103 845.202 261.935 846.671 251.726 846.514C251.852 848.451 251.842 849.806 251.606 851.707C252.165 851.721 259.254 851.906 259.213 851.874C262.19 854.142 250.082 853.486 249.575 853.489C249.869 848.752 249.686 843.767 249.941 838.893Z"/><path fill="#5B5A5A" d="M818.064 850.279C817.863 847.629 817.31 845.491 817.916 842.745C817.947 842.609 817.968 840.276 817.956 840.228C817.582 838.772 819.755 838.933 819.781 839.3C820.088 843.858 819.923 848.612 819.944 853.202C819.947 853.706 818.357 853.475 818.096 853.199C814.844 849.766 812.141 845.812 809.419 841.984C809.497 840.847 809.452 840.941 810.116 839.986C811.744 841.862 813.275 843.929 814.788 845.908L818.064 850.279Z"/><path fill="#5B5A5A" d="M635.066 838.734C638.313 838.535 641.301 838.686 644.5 838.62L645.498 838.617C648.953 838.58 647.51 840.673 646.508 840.446C641.223 839.251 643.038 842.558 643.086 849.712C643.048 850.848 643.167 852.331 642.845 853.405C642.715 853.84 640.765 854.128 640.725 853.698C640.326 849.405 640.63 844.714 640.624 840.348C637.79 840.066 636.77 840.989 635.066 838.734Z"/><path fill="#222" d="M463.112 838.847C464.373 838.785 472.991 838.157 472.984 839.493C472.983 839.702 472.893 839.9 472.736 840.038C471.981 840.706 466.469 840.13 465.612 840.631C465.162 840.895 465.776 843.253 465.229 843.949C464.901 844.367 464.687 845.285 464.74 845.904C465.149 848.745 464.957 849.207 464.969 851.89C466.172 851.928 473.42 851.543 473.288 852.756C472.077 853.507 464.914 853.406 463.121 853.407C463.255 851.06 463.228 848.726 463.212 846.375C463.114 844.031 463.087 842.168 463.11 839.849L463.112 838.847Z"/><path fill="#5B5A5A" fill-opacity="0.98431373" d="M519.709 845.641C520.348 844.513 523.207 838.97 523.793 838.706C528.535 836.567 523.26 843.516 522.948 844.053C520.335 848.445 520.48 848.068 520.316 853.177C520.31 853.356 519.805 853.512 519.688 853.556C518.111 852.778 519.723 849.226 518.214 846.826C516.518 844.13 514.494 841.001 513.12 838.167C517.041 839.17 517.71 841.95 519.709 845.641Z"/><path fill="#5B5A5A" d="M411.2 853.627C411.286 851.253 411.025 840.802 411.481 839.405C411.908 839.047 412.521 839.052 413.066 838.965L413.528 840.478C413.508 842.828 413.608 843.213 413.188 845.463L413.506 847.04C413.579 853.071 412.489 851.749 418.523 852.042C418.836 852.727 418.835 852.775 418.506 853.449C416.015 853.538 413.692 853.61 411.2 853.627Z"/><path fill="#100E10" fill-opacity="0.89803922" d="M321.601 839.939C322.047 842.136 321.928 843.913 322.431 846.152C322.665 849.133 323.539 852.168 327.008 852.16C331.744 852.15 331.529 847.637 331.516 844.36C331.978 843.331 332.347 842.608 332.658 841.534C332.44 844.379 333.629 850.636 331.534 851.746C318.835 858.474 321.305 844.406 321.601 839.939Z"/><path fill="#222" fill-opacity="0.97647059" d="M733.18 839.238C734.596 839.068 744.942 838.227 744.748 839.748C743.26 840.617 741.427 839.815 740.205 840.208C740.071 843.263 739.98 845.686 740.029 848.75C740.029 848.378 740.278 855.181 739.108 853.192C737.919 851.171 739.049 845.25 738.524 842.756C738.267 841.538 738.858 841.705 738.705 840.738C737.484 839.576 735.889 841.897 733.18 839.238Z"/><path fill="#3C3A3C" d="M809.419 841.984C809.459 843.118 810.423 855.688 807.642 853.336C807.621 853.319 806.873 839.819 807.651 838.879C808.442 837.923 809.657 839.227 810.116 839.986C809.452 840.941 809.497 840.847 809.419 841.984Z"/><path fill="#3C3A3C" fill-opacity="0.98823529" d="M294.577 846.62C294.507 848.097 294.972 852.589 293.743 853.22L293.989 852.954C293.458 853.318 293.621 853.335 293.197 853.308C293.055 853.191 292.754 853.102 292.756 852.792C292.79 848.321 292.704 843.787 292.936 839.327C292.963 838.817 294.671 838.193 294.595 839.498C294.489 841.333 294.376 843.512 294.696 845.322L294.577 846.62Z"/><path fill="#100E10" fill-opacity="0.90588236" d="M662.507 838.045C662.943 838.226 663.546 838.356 663.88 838.706C663.974 838.805 663.711 851.759 663.772 853.305C663.349 853.397 662.989 853.575 662.622 853.309C662.443 852.848 662.487 839.573 662.507 838.045Z"/><path fill="#100E10" fill-opacity="0.92156863" d="M760.494 838.711C762.4 840.132 761.339 850.006 761.782 853.525C761.698 853.509 760.713 853.362 760.692 853.247C760.282 850.939 760.47 840.279 760.494 838.711Z"/><path fill="#3C3A3C" d="M413.188 845.463C416.504 844.712 420.022 845.433 423.319 846.064C419.039 846.767 417.931 846.948 413.506 847.04L413.188 845.463Z"/><path fill="#222" d="M413.066 838.965C414.242 838.846 420.838 838.838 421.369 839.127C421.612 839.639 421.235 840.348 420.749 840.572C418.926 839.647 415.855 840.395 413.528 840.478L413.066 838.965Z"/><path fill="#100E10" fill-opacity="0.94509804" d="M464.74 845.904C465.958 844.498 468.273 845.017 470.11 844.95C470.263 845.134 470.417 845.319 470.57 845.503C470.614 845.578 470.657 845.653 470.701 845.728C470.439 846.004 468.87 846.371 468.38 846.554C466.51 846.464 466.488 846.426 464.74 845.904Z"/><path fill="#100E10" fill-opacity="0.9137255" d="M294.696 845.322L302.426 845.574C300.9 845.863 299.931 846.067 298.455 846.484C297.128 846.502 295.9 846.556 294.577 846.62L294.696 845.322Z"/><path fill="#3C3A3C" fill-opacity="0.95294118" d="M835.718 851.289C836.238 850.851 837.011 850.905 837.465 851.41C837.919 851.915 837.89 852.689 837.4 853.159C837.068 853.477 836.59 853.589 836.152 853.451C835.714 853.313 835.386 852.948 835.296 852.498C835.206 852.048 835.367 851.585 835.718 851.289Z"/><path fill="#222" fill-opacity="0.38039216" d="M303.558 839.091C305.264 839.383 304.538 844.752 304.476 846.355L303.993 846.417L303.423 845.458L303.56 845.187C304.287 842.878 304.155 841.409 303.558 839.091Z"/><path fill="#222" fill-opacity="0.81176472" d="M470.11 844.95C470.907 845.013 471.81 844.97 472.537 845.362L472.247 845.324L472.908 845.759C472.584 846.935 469.335 846.53 468.38 846.554C468.87 846.371 470.439 846.004 470.701 845.728C470.657 845.653 470.614 845.578 470.57 845.503C470.417 845.319 470.263 845.134 470.11 844.95Z"/><path fill="#100E10" fill-opacity="0.81176472" d="M303.993 846.417C304.053 848.605 303.926 850.012 304.303 852.171C304.667 852.586 304.867 852.765 304.327 853.108C303.843 853.097 303.934 853.14 303.548 852.86C303.469 852.637 303.458 847.309 303.449 846.558L303.993 846.417Z"/><path fill="#3C3A3C" fill-opacity="0.87058824" d="M418.523 852.042C422.336 852.014 422.265 853.555 418.506 853.449C418.835 852.775 418.836 852.727 418.523 852.042Z"/><path fill="#222" fill-opacity="0.53333336" d="M321.601 839.939C321.66 839.622 321.666 839.21 322.09 839.27C322.811 839.829 322.474 845.109 322.431 846.152C321.928 843.913 322.047 842.136 321.601 839.939Z"/><path fill="#100E10" fill-opacity="0.64313728" d="M331.516 844.36C331.497 843.234 331.406 842.103 331.529 840.976C331.547 840.808 331.706 839.978 332.092 840.172C332.308 840.281 332.394 840.581 332.463 840.787C332.528 841.036 332.593 841.285 332.658 841.534C332.347 842.608 331.978 843.331 331.516 844.36Z"/><path fill="#100E10" fill-opacity="0.85882354" d="M303.558 839.091C304.155 841.409 304.287 842.878 303.56 845.187C303.469 842.978 303.452 841.312 303.558 839.091Z"/><path fill="#222" fill-opacity="0.52941179" d="M303.993 846.417L304.476 846.355C304.513 848.633 304.482 849.919 304.303 852.171C303.926 850.012 304.053 848.605 303.993 846.417Z"/><path fill="white" fill-opacity="0.015686275" d="M229.338 741.127L231.378 740.62C230.986 741.132 229.791 742.998 229.297 743.164L229.2 743.108C228.972 742.529 229.219 741.736 229.338 741.127Z"/><path fill="#100E10" fill-opacity="0.4509804" d="M302.426 845.574L302.784 845.687L302.46 846.375C301.082 846.447 299.837 846.474 298.455 846.484C299.931 846.067 300.9 845.863 302.426 845.574Z"/><path fill="#100E10" fill-opacity="0.15294118" d="M303.423 845.458L303.993 846.417L303.449 846.558L302.46 846.375L302.784 845.687L303.423 845.458Z"/></svg>